<?xml version="1.0" standalone="no"?>
<!DOCTYPE svg PUBLIC "-//W3C//DTD SVG 20010904//EN"
 "http://www.w3.org/TR/2001/REC-SVG-20010904/DTD/svg10.dtd">
<svg version="1.0" xmlns="http://www.w3.org/2000/svg"
 width="851.000000pt" height="851.000000pt" viewBox="0 0 851.000000 851.000000"
 preserveAspectRatio="xMidYMid meet">
<metadata>
Created by potrace 1.14, written by Peter Selinger 2001-2017
</metadata>
<g transform="translate(0.000000,851.000000) scale(0.100000,-0.100000)"
fill="#000000" stroke="none">
<path d="M5130 5324 c0 -4 160 -235 355 -515 195 -279 355 -510 355 -514 0 -3
-160 -212 -355 -465 -195 -252 -355 -461 -355 -465 0 -3 94 -5 208 -5 l209 0
233 303 c129 166 244 314 256 329 l22 27 217 -329 217 -330 200 0 c110 0 198
3 196 8 -1 4 -139 211 -305 459 -166 248 -304 456 -305 462 -4 14 385 521 394
513 3 -4 136 -205 295 -447 159 -242 371 -565 472 -717 l183 -278 200 0 c157
0 198 3 192 13 -4 6 -139 203 -299 437 -160 234 -390 569 -510 745 -120 176
-288 422 -373 548 -85 125 -159 227 -162 227 -4 0 -59 -69 -122 -152 -180
-239 -478 -623 -486 -625 -4 -2 -133 173 -287 387 l-280 390 -182 0 c-101 0
-183 -3 -183 -6z"/>
<path d="M320 4340 l0 -980 170 0 170 0 0 980 0 980 -170 0 -170 0 0 -980z"/>
<path d="M1190 4340 l0 -981 558 4 c534 3 560 4 639 25 290 76 438 250 437
512 -1 117 -20 187 -75 269 -47 71 -143 144 -236 181 -71 28 -72 29 -52 41
105 58 193 160 228 261 82 240 -20 489 -244 594 -146 69 -134 68 -722 72
l-533 3 0 -981z m955 665 c85 -18 150 -57 190 -114 27 -39 30 -50 30 -124 0
-71 -4 -88 -27 -128 -33 -56 -87 -95 -168 -120 -55 -17 -94 -19 -351 -19
l-289 0 0 260 0 260 273 0 c201 0 290 -4 342 -15z m103 -820 c83 -20 131 -45
175 -94 104 -116 62 -307 -85 -382 -76 -39 -172 -48 -500 -49 l-308 0 0 270 0
270 328 0 c253 0 341 -4 390 -15z"/>
<path d="M3220 4340 l0 -980 735 0 735 0 0 155 0 155 -565 0 -565 0 0 260 0
260 495 0 495 0 0 155 0 155 -492 2 -493 3 0 255 0 255 558 3 557 2 0 150 0
150 -730 0 -730 0 0 -980z"/>
<path d="M7447 4956 c-64 -45 -71 -54 -19 -26 23 13 50 32 59 42 22 25 15 22
-40 -16z"/>
<path d="M7488 4803 c18 -2 45 -2 60 0 15 2 0 4 -33 4 -33 0 -45 -2 -27 -4z"/>
<path d="M461 3178 c-90 -16 -150 -94 -151 -196 -1 -235 334 -286 409 -63 15
46 14 85 -5 129 -40 96 -143 150 -253 130z m135 -112 c30 -30 34 -40 34 -86 0
-46 -4 -56 -34 -86 -26 -26 -42 -34 -70 -34 -51 0 -90 23 -110 64 -20 43 -20
69 0 112 20 42 56 63 108 64 30 0 45 -7 72 -34z"/>
<path d="M7240 3182 c-87 -11 -154 -69 -175 -150 -46 -177 137 -316 302 -230
170 87 131 343 -58 376 -24 4 -55 6 -69 4z m80 -97 c38 -19 60 -63 60 -116 0
-33 -6 -47 -34 -75 -96 -96 -244 24 -181 146 28 55 98 75 155 45z"/>
<path d="M915 3168 c-3 -7 -4 -97 -3 -198 l3 -185 43 -3 42 -3 0 60 0 61 58 0
c96 0 159 46 168 126 6 47 -18 98 -59 128 -23 17 -47 21 -137 24 -87 3 -111 1
-115 -10z m182 -79 c80 -30 46 -109 -47 -109 l-50 0 0 60 0 60 34 0 c19 0 47
-5 63 -11z"/>
<path d="M1400 2980 l0 -200 150 0 150 0 0 40 0 40 -105 0 -105 0 0 40 0 39
93 3 92 3 3 38 3 37 -95 0 -96 0 0 40 0 40 105 0 105 0 0 40 0 40 -150 0 -150
0 0 -200z"/>
<path d="M1890 2980 l0 -200 45 0 44 0 3 119 3 119 90 -119 c87 -115 91 -119
128 -119 l37 0 0 200 0 200 -45 0 -44 0 -3 -116 -3 -116 -88 116 c-86 114 -89
116 -127 116 l-40 0 0 -200z"/>
<path d="M2750 2980 l0 -200 150 0 150 0 0 40 0 40 -105 0 -105 0 0 40 0 39
93 3 92 3 3 38 3 37 -95 0 -96 0 0 40 0 40 105 0 105 0 0 40 0 40 -150 0 -150
0 0 -200z"/>
<path d="M3220 3175 c0 -3 27 -46 60 -95 33 -49 60 -93 60 -98 0 -5 -26 -47
-58 -93 -32 -46 -62 -90 -66 -96 -5 -10 6 -13 43 -13 l51 0 44 66 44 66 44
-66 43 -66 53 0 52 0 -68 103 -69 102 63 90 c35 50 63 93 64 98 0 4 -22 7 -49
7 l-50 0 -37 -60 c-20 -33 -40 -60 -43 -60 -3 0 -23 27 -45 60 -38 60 -38 60
-87 60 -27 0 -49 -2 -49 -5z"/>
<path d="M3760 2981 l0 -201 45 0 45 0 0 60 0 60 58 0 c65 0 116 21 146 62 27
38 27 118 0 156 -34 45 -69 57 -186 60 l-108 4 0 -201z m205 99 c8 -7 15 -27
15 -46 0 -41 -21 -54 -84 -54 l-46 0 0 61 0 62 50 -5 c27 -3 56 -11 65 -18z"/>
<path d="M4250 2980 l0 -201 143 3 142 3 3 38 3 37 -100 0 -101 0 0 160 0 160
-45 0 -45 0 0 -200z"/>
<path d="M4785 3163 c-73 -38 -115 -105 -115 -183 0 -204 266 -281 385 -111
26 37 30 51 30 111 0 60 -4 74 -30 112 -41 59 -101 88 -180 88 -35 -1 -73 -7
-90 -17z m171 -97 c30 -30 34 -40 34 -86 0 -46 -4 -56 -34 -86 -26 -26 -42
-34 -70 -34 -51 0 -90 23 -110 64 -20 43 -20 69 0 112 20 42 56 63 108 64 30
0 45 -7 72 -34z"/>
<path d="M5274 3167 c-2 -7 -3 -96 -2 -197 l3 -185 45 0 45 0 3 63 c3 61 4 62
31 62 24 0 35 -10 71 -65 l42 -65 49 0 c27 0 49 4 49 8 0 5 -18 34 -40 66 -22
31 -40 59 -40 62 0 3 13 17 30 30 79 67 49 196 -51 224 -52 15 -229 13 -235
-3z m206 -80 c16 -8 26 -23 28 -40 5 -44 -13 -57 -79 -57 l-59 0 0 55 0 55 43
0 c23 0 53 -6 67 -13z"/>
<path d="M5845 2989 c-44 -104 -82 -195 -84 -200 -2 -6 16 -9 45 -7 46 3 48 4
63 46 l15 42 82 0 82 0 19 -45 c18 -44 19 -45 65 -45 41 0 46 2 41 18 -4 9
-42 98 -84 197 l-78 180 -43 3 -43 2 -80 -191z m145 25 c11 -25 20 -50 20 -55
0 -5 -21 -9 -46 -9 -33 0 -45 4 -41 13 29 73 40 97 43 97 3 0 14 -21 24 -46z"/>
<path d="M6270 3135 l0 -45 60 0 60 0 0 -155 0 -155 45 0 45 0 0 155 0 154 58
3 57 3 3 43 3 42 -165 0 -166 0 0 -45z"/>
<path d="M6780 2980 l0 -201 43 3 42 3 0 195 0 195 -42 3 -43 3 0 -201z"/>
<path d="M7660 2980 l0 -200 45 0 44 0 3 121 3 122 90 -119 c84 -111 92 -119
128 -122 l37 -3 0 201 0 201 -42 -3 -43 -3 -5 -111 -5 -111 -85 113 c-85 113
-85 113 -127 114 l-43 0 0 -200z"/>
</g>
</svg>
